<mxfile host="app.diagrams.net" modified="2022-08-04T04:31:58.358Z" agent="5.0 (Windows NT 10.0; Win64; x64) AppleWebKit/537.36 (KHTML, like Gecko) Chrome/103.0.0.0 Safari/537.36" etag="33gna8MURFcJk-dAyDU8" version="20.2.3" type="github">
  <diagram id="_P-Zi_dOzf9sflb4-BA2" name="페이지-1">
    <mxGraphModel dx="1142" dy="466" grid="1" gridSize="10" guides="1" tooltips="1" connect="1" arrows="1" fold="1" page="1" pageScale="1" pageWidth="1200" pageHeight="1600" math="0" shadow="0">
      <root>
        <mxCell id="0" />
        <mxCell id="1" parent="0" />
      </root>
    </mxGraphModel>
  </diagram>
</mxfile>
